<?xml version="1.0" encoding="UTF-8"?><svg xmlns="http://www.w3.org/2000/svg" xmlns:xlink="http://www.w3.org/1999/xlink" width="375" zoomAndPan="magnify" viewBox="0 0 375 374.999991" height="374.999991" preserveAspectRatio="xMidYMid meet" version="1.0"><path fill="rgb(100%, 100%, 100%)" d="M 120.675781 240.261719 C 73.050781 186.1875 49.726562 120.5625 52.800781 61.460938 C 79.351562 56.738281 108 56.960938 136.949219 62.289062 C 137.398438 67.011719 139.5 71.210938 142.800781 74.210938 C 126.75 110.210938 117.523438 151.6875 117.523438 195.863281 C 117.523438 211.085938 118.648438 225.863281 120.675781 240.261719 Z M 162.675781 279.636719 C 182.925781 295.3125 204.523438 307.761719 226.5 316.835938 C 230.476562 309.710938 234.148438 302.289062 237.523438 294.636719 C 235.648438 292.835938 234.226562 290.585938 233.25 288.1875 C 210.226562 288.261719 186.449219 285.488281 162.675781 279.636719 Z M 171.300781 70.914062 C 167.925781 76.011719 162.226562 79.3125 155.625 79.3125 C 155.175781 79.3125 154.726562 79.3125 154.273438 79.238281 C 138.898438 113.738281 130.050781 153.488281 130.050781 195.863281 C 130.050781 212.363281 131.398438 228.414062 133.949219 243.9375 C 142.726562 245.511719 149.398438 253.164062 149.398438 262.386719 C 149.398438 262.539062 149.398438 262.761719 149.398438 262.914062 C 177.449219 271.539062 205.648438 275.585938 232.726562 275.511719 C 234.976562 268.3125 241.425781 262.988281 249.148438 262.386719 C 256.726562 236.664062 260.851562 208.835938 260.851562 179.886719 C 260.851562 156.335938 258.148438 133.613281 253.050781 112.164062 C 248.851562 109.164062 244.648438 106.238281 240.226562 103.460938 C 217.949219 89.289062 194.699219 78.414062 171.300781 70.914062 Z M 268.273438 123.9375 C 271.574219 141.9375 273.300781 160.761719 273.300781 180.039062 C 273.300781 210.1875 269.023438 239.0625 261.226562 265.761719 C 263.925781 267.636719 266.101562 270.1875 267.523438 273.1875 C 299.023438 268.761719 328.125 258.414062 352.574219 242.738281 C 338.175781 199.460938 309.226562 157.460938 268.273438 123.9375 Z M 170.324219 49.011719 C 172.5 51.789062 173.925781 55.085938 174.300781 58.761719 C 199.050781 66.636719 223.574219 78.039062 247.050781 93.039062 C 247.425781 93.261719 247.726562 93.488281 248.101562 93.710938 C 238.050781 61.164062 222.449219 32.0625 202.800781 8.289062 C 190.648438 20.136719 179.773438 33.789062 170.324219 49.011719 Z M 187.5 0.113281 C 139.800781 0.113281 96.226562 17.960938 63.148438 47.289062 C 87.824219 44.363281 113.773438 45.261719 140.023438 50.136719 C 143.398438 45.113281 149.101562 41.8125 155.625 41.8125 C 157.050781 41.8125 158.398438 41.960938 159.75 42.261719 C 169.5 26.664062 180.675781 12.488281 193.125 0.1875 C 191.25 0.113281 189.375 0.113281 187.5 0.113281 Z M 264.148438 104.886719 C 312.300781 140.4375 346.351562 186.9375 363.300781 235.386719 C 365.625 233.585938 367.949219 231.789062 370.199219 229.914062 C 373.351562 216.335938 375 202.164062 375 187.613281 C 375 92.960938 304.875 14.664062 213.675781 1.914062 C 236.699219 30.261719 254.175781 65.4375 264.148438 104.886719 Z M 358.574219 264.488281 C 357.898438 261.414062 357.148438 258.335938 356.324219 255.1875 C 330.898438 270.789062 301.050781 281.136719 268.875 285.636719 C 266.851562 293.8125 259.5 299.960938 250.648438 299.960938 C 250.050781 299.960938 249.449219 299.960938 248.925781 299.886719 C 245.699219 307.3125 242.101562 314.511719 238.351562 321.414062 C 260.023438 329.210938 281.925781 333.789062 303.300781 335.136719 C 326.925781 316.539062 346.050781 292.3125 358.574219 264.488281 Z M 129.449219 281.210938 C 119.625 280.613281 111.824219 272.4375 111.824219 262.539062 C 65.851562 242.363281 27.75 212.738281 0.226562 178.3125 C 0.0742188 181.386719 0 184.460938 0 187.613281 C 0 287.960938 78.824219 369.863281 177.898438 374.886719 C 156.523438 348.863281 139.875 316.914062 129.449219 281.210938 Z M 220.050781 327.710938 C 192.75 316.164062 166.199219 299.8125 141.824219 278.738281 C 151.800781 312.710938 167.851562 343.085938 188.175781 367.6875 C 199.949219 355.988281 210.675781 342.5625 220.050781 327.710938 Z M 231.898438 332.4375 C 222.226562 348.113281 211.050781 362.363281 198.75 374.738281 C 231.300781 372.789062 261.601562 362.585938 287.550781 346.164062 C 269.101562 343.835938 250.351562 339.1875 231.898438 332.4375 Z M 111.226562 248.4375 C 64.273438 195.1875 39.976562 131.0625 39.976562 71.8125 C 20.324219 96.863281 6.898438 127.011719 2.023438 159.9375 C 27.675781 195.863281 65.175781 227.210938 111.226562 248.4375 Z M 111.226562 248.4375 " fill-opacity="1" fill-rule="nonzero"/></svg>